# xmcd
# 
# Track frame offsets:
#     150
#     15975
#     40215
#     61239
#     80131
#     96730
#     115787
#     133377
# 
# Disc length: 2031
# 
# Revision: 0
# Processed by: cddbd v1.5.2PL0 Copyright (c) Steve Scherf et al.
# Submitted via: BonkEnc v1.0rc1
# 
DISCID=6c07ed08
DTITLE=Cameo - Knights Of The Sound Table
DYEAR=1981
DGENRE=
TTITLE0=Knights By Nights
TTITLE1=Freaky Dancin'
TTITLE2=I Never Knew
TTITLE3=Use It Or Lose It
TTITLE4=The Sound Table
TTITLE5=Don't Be So Cool
TTITLE6=I'll Always Stay
TTITLE7=I Like It
EXTD=
EXTT0=
EXTT1=
EXTT2=
EXTT3=
EXTT4=
EXTT5=
EXTT6=
EXTT7=
PLAYORDER=
